<svg id="visual" viewBox="0 0 900 600" width="900" height="600" xmlns="http://www.w3.org/2000/svg" xmlns:xlink="http://www.w3.org/1999/xlink" version="1.1"><rect x="0" y="0" width="900" height="600" fill="#4043a4"></rect><defs><linearGradient id="grad1_0" x1="33.3%" y1="0%" x2="100%" y2="100%"><stop offset="20%" stop-color="#0c9fda" stop-opacity="1"></stop><stop offset="80%" stop-color="#0c9fda" stop-opacity="1"></stop></linearGradient></defs><defs><linearGradient id="grad1_1" x1="33.3%" y1="0%" x2="100%" y2="100%"><stop offset="20%" stop-color="#0c9fda" stop-opacity="1"></stop><stop offset="80%" stop-color="#4043a4" stop-opacity="1"></stop></linearGradient></defs><defs><linearGradient id="grad2_0" x1="0%" y1="0%" x2="66.7%" y2="100%"><stop offset="20%" stop-color="#0c9fda" stop-opacity="1"></stop><stop offset="80%" stop-color="#0c9fda" stop-opacity="1"></stop></linearGradient></defs><defs><linearGradient id="grad2_1" x1="0%" y1="0%" x2="66.7%" y2="100%"><stop offset="20%" stop-color="#4043a4" stop-opacity="1"></stop><stop offset="80%" stop-color="#0c9fda" stop-opacity="1"></stop></linearGradient></defs><g transform="translate(900, 0)"><path d="M0 297.5C-33.6 282.8 -67.2 268.1 -106.4 256.8C-145.6 245.6 -190.4 237.8 -210.3 210.3C-230.2 182.9 -225.2 135.9 -235.6 97.6C-246 59.3 -271.7 29.6 -297.5 0L0 0Z" fill="#0073c7"></path><path d="M0 148.7C-16.8 141.4 -33.6 134 -53.2 128.4C-72.8 122.8 -95.2 118.9 -105.2 105.2C-115.1 91.5 -112.6 68 -117.8 48.8C-123 29.6 -135.9 14.8 -148.7 0L0 0Z" fill="#0c9fda"></path></g><g transform="translate(0, 600)"><path d="M0 -297.5C39.6 -279.6 79.2 -261.7 95.3 -230C111.4 -198.4 104 -153.1 136.5 -136.5C169 -119.8 241.3 -131.8 274.8 -113.8C308.3 -95.9 302.9 -47.9 297.5 0L0 0Z" fill="#0073c7"></path><path d="M0 -148.7C19.8 -139.8 39.6 -130.8 47.6 -115C55.7 -99.2 52 -76.6 68.2 -68.2C84.5 -59.9 120.7 -65.9 137.4 -56.9C154.1 -47.9 151.4 -24 148.7 0L0 0Z" fill="#0c9fda"></path></g></svg>